<svg xmlns="http://www.w3.org/2000/svg" version="1.1" xmlns:xlink="http://www.w3.org/1999/xlink" xmlns:svgjs="http://svgjs.dev/svgjs" width="256" height="256" viewBox="0 0 256 256">
  <g transform="matrix(1.609375, 0, 0, 1.609375, 19.854838709677874, 19.854838709677874)">
    <svg viewBox="0 0 248.8 248.8" data-background-color="#ffffff" preserveAspectRatio="xMidYMid meet" height="256" width="256" xmlns="http://www.w3.org/2000/svg" xmlns:xlink="http://www.w3.org/1999/xlink">
      <g id="tight-bounds" transform="matrix(1, 0, 0, 1, 0.4, 0.4)">
        <svg viewBox="0 0 247.2 247.2" height="247.2" width="247.2">
          <g>
            <svg></svg>
          </g>
          <g>
            <svg viewBox="0 0 247.2 247.2" height="247.2" width="247.2">
              <g transform="matrix(1, 0, 0, 1, 76.83096839999999, 90.98046539137718)">
                <svg viewBox="0 0 95.006444 66.93878639945584" height="66.93878639945584" width="95.006444">
                  <g>
                    <svg viewBox="0 0 95.006444 66.93878639945584" height="66.93878639945584" width="95.006444">
                      <g>
                        <svg viewBox="0 0 95.006444 66.93878639945584" height="66.93878639945584" width="95.006444">
                          <g id="textblocktransform">
                            <svg viewBox="0 0 95.006444 66.93878639945584" height="66.93878639945584" width="95.006444" id="textblock">
                              <g>
                                <svg viewBox="0 0 95.006444 66.93878639945584" height="66.93878639945584" width="95.006444">
                                  <g transform="matrix(1, 0, 0, 1, 0, 0)">
                                    <svg width="95.006444" viewBox="-17.448 -51.2 74.56 52.48" height="66.93878639945584" data-palette-color="#186ee2">
                                      <path d="M9.75-16.85L9.6-15.85Q9.5-15.45 9.4-14.75L9.4-14.75-10.25-16.85 9.75-16.85ZM-10.8-12.05L9.05-12.05Q8.9-10.9 8.9-9.95L8.9-9.95-10.8-12.05ZM-9.05-21.65L10.95-21.65 10.35-19.6-9.05-21.65ZM-10.15-7.25L8.95-7.25Q9.15-5.85 9.3-5.15L9.3-5.15-10.15-7.25ZM-6.7-26.45L13-26.45Q12.3-25.15 12-24.45L12-24.45-6.7-26.45ZM-5.35-2.4L10.45-2.4Q11.1-1.25 11.95-0.55L11.95-0.55-5.35-2.4ZM0.2-31.25L17.75-31.25Q16.3-30.35 15.5-29.6L15.5-29.6 0.2-31.25ZM22.15 0.75L22.15 0.75Q15.85 0.75 13.13-1.7 10.4-4.15 10.4-9.25L10.4-9.25Q10.4-11.4 11.1-15.6L11.1-15.6Q12.6-24.2 16.28-28.1 19.95-32 27.9-32L27.9-32Q29.75-32 32.13-31.63 34.5-31.25 35.6-30.7L35.6-30.7 32.8-23.05Q29.85-23.75 27.28-23.75 24.7-23.75 23.6-23.25 22.5-22.75 22.25-21.25L22.25-21.25 19.95-8.15Q21.75-7.75 23.65-7.75L23.65-7.75Q27.7-7.75 31.05-8.95L31.05-8.95 30.25-0.55Q27.05 0.75 22.15 0.75Z" opacity="1" transform="matrix(1, 0, 0, 1, 0, 0)" fill="#186ee2" class="wordmark-text-0" data-fill-palette-color="primary" id="text-0"></path>
                                    </svg>
                                  </g>
                                </svg>
                              </g>
                            </svg>
                          </g>
                        </svg>
                      </g>
                    </svg>
                  </g>
                  <g></g>
                </svg>
              </g>
              <g>
                <path d="M137.844 93.188A47.4688 47.4688 0 0 1 171.156 93.188L163.644 93.188A41.406 41.406 0 0 0 148.356 93.188L137.844 93.188M137.844 171.812A47.4688 47.4688 0 0 0 171.156 171.812L163.644 171.812A41.406 41.406 0 0 1 148.356 171.812L137.844 171.812" fill="#4812ef" stroke="transparent" data-fill-palette-color="tertiary"></path>
              </g>
            </svg>
          </g>
        </svg>
      </g>
      <defs></defs>
    </svg>
  <rect width="154.5" height="154.5" fill="none" stroke="none" visibility="hidden"></rect></g></svg></g></svg>
