<svg xmlns="http://www.w3.org/2000/svg" version="1.1" xmlns:xlink="http://www.w3.org/1999/xlink" xmlns:svgjs="http://svgjs.dev/svgjs" width="2000" height="1999" viewBox="0 0 2000 1999"><g transform="matrix(1,0,0,1,-0.431486880466764,-0.4312711370263287)"><svg viewBox="0 0 343 343" data-background-color="#ffffff" preserveAspectRatio="xMidYMid meet" height="1999" width="2000" xmlns="http://www.w3.org/2000/svg" xmlns:xlink="http://www.w3.org/1999/xlink"><g id="tight-bounds" transform="matrix(1,0,0,1,0.0740000000000407,0.07400000000001228)"><svg viewBox="0 0 342.85155851775386 342.85155851775386" height="342.85155851775386" width="342.85155851775386"><g><svg></svg></g><g><svg viewBox="0 0 342.85155851775386 342.85155851775386" height="342.85155851775386" width="342.85155851775386"><g><path d="M0 171.426c0-94.676 76.75-171.426 171.426-171.426 94.676 0 171.426 76.75 171.426 171.426 0 94.676-76.75 171.426-171.426 171.426-94.676 0-171.426-76.75-171.426-171.426zM171.426 330.963c88.11 0 159.537-71.427 159.537-159.537 0-88.11-71.427-159.537-159.537-159.537-88.11 0-159.537 71.427-159.537 159.537 0 88.11 71.427 159.537 159.537 159.537z" data-fill-palette-color="tertiary" fill="#ee3e38" stroke="transparent"></path><ellipse rx="164.56874808852186" ry="164.56874808852186" cx="171.42577925887693" cy="171.42577925887693" fill="#ee3e38" stroke="transparent" stroke-width="0" fill-opacity="1" data-fill-palette-color="tertiary"></ellipse></g><g transform="matrix(1,0,0,1,64.84655864529837,105.50853027920711)"><svg viewBox="0 0 213.1584412271571 131.83449795933964" height="131.83449795933964" width="213.1584412271571"><g><svg viewBox="0 0 213.1584412271571 131.83449795933964" height="131.83449795933964" width="213.1584412271571"><g><svg viewBox="0 0 213.1584412271571 131.83449795933964" height="131.83449795933964" width="213.1584412271571"><g><svg viewBox="0 0 213.1584412271571 131.83449795933964" height="131.83449795933964" width="213.1584412271571"><g id="textblocktransform"><svg viewBox="0 0 213.1584412271571 131.83449795933964" height="131.83449795933964" width="213.1584412271571" id="textblock"><g><svg viewBox="0 0 213.1584412271571 131.83449795933964" height="131.83449795933964" width="213.1584412271571"><g transform="matrix(1,0,0,1,0,0)"><svg width="213.1584412271571" viewBox="2.700000047683716 -33.20000076293945 54.64999771118164 33.79999923706055" height="131.83449795933964" data-palette-color="#ffffff"><path d="M17.8 0.6L17.8 0.6Q14.75 0.6 12.03-0.48 9.3-1.55 7.23-3.65 5.15-5.75 3.93-8.88 2.7-12 2.7-16.1L2.7-16.1Q2.7-20.15 3.9-23.33 5.1-26.5 7.2-28.7 9.3-30.9 12.15-32.05 15-33.2 18.25-33.2L18.25-33.2Q21.35-33.2 23.85-31.93 26.35-30.65 28-29.05L28-29.05 23.95-24.5Q22.8-25.55 21.43-26.2 20.05-26.85 18.25-26.85L18.25-26.85Q16.5-26.85 15.05-26.13 13.6-25.4 12.53-24.05 11.45-22.7 10.85-20.75 10.25-18.8 10.25-16.35L10.25-16.35Q10.25-11.3 12.55-8.53 14.85-5.75 18.55-5.75L18.55-5.75Q20.3-5.75 21.78-6.55 23.25-7.35 24.45-8.65L24.45-8.65 28.5-4.2Q24.45 0.6 17.8 0.6ZM47.15 0.6L47.15 0.6Q44 0.6 41.27-0.48 38.55-1.55 36.52-3.65 34.5-5.75 33.35-8.88 32.2-12 32.2-16.1L32.2-16.1Q32.2-20.2 33.37-23.38 34.55-26.55 36.57-28.73 38.6-30.9 41.35-32.05 44.1-33.2 47.25-33.2L47.25-33.2Q50.55-33.2 52.87-31.93 55.2-30.65 56.8-29.05L56.8-29.05 52.75-24.5Q51.7-25.55 50.45-26.2 49.2-26.85 47.25-26.85L47.25-26.85Q45.65-26.85 44.3-26.13 42.95-25.4 41.95-24.05 40.95-22.7 40.37-20.75 39.8-18.8 39.8-16.35L39.8-16.35Q39.8-11.3 41.72-8.53 43.65-5.75 47.55-5.75L47.55-5.75Q48.5-5.75 49.35-6 50.2-6.25 50.75-6.75L50.75-6.75 50.75-12.35 46-12.35 46-18.35 57.35-18.35 57.35-3.35Q55.7-1.8 53-0.6 50.3 0.6 47.15 0.6Z" opacity="1" transform="matrix(1,0,0,1,0,0)" fill="#ffffff" class="wordmark-text-0" data-fill-palette-color="quaternary" id="text-0"></path></svg></g></svg></g></svg></g></svg></g><g></g></svg></g></svg></g></svg></g></svg></g><defs></defs></svg><rect width="342.85155851775386" height="342.85155851775386" fill="none" stroke="none" visibility="hidden"></rect></g></svg></g></svg>